<?xml version="1.0" encoding="utf-8"?>
<!-- Generator: Adobe Illustrator 19.0.1, SVG Export Plug-In . SVG Version: 6.00 Build 0)  -->
<svg version="1.1" id="Layer_1" xmlns="http://www.w3.org/2000/svg" xmlns:xlink="http://www.w3.org/1999/xlink" x="0px" y="0px"
	 viewBox="0 0 161.4 142.8" style="enable-background:new 0 0 161.4 142.8;" xml:space="preserve">
<g>
	<path d="M72.7,117.5c5.2,0,7.8-2.6,9.5-11.1l9.6-49.8C92,56,92,55.4,92,55c0-1.3-0.7-2-2.9-2H67.8l-13.1,64.9
		c-3.6,17.7-17.3,24.9-33.7,24.9c-6.9,0-13.7-1-21-2.6l4.2-23.8c3.2,0.6,5.8,1,7.8,1c5.2,0,7.8-2.6,9.5-11.1l9.6-49.8
		c0.4-2.4,0.1-3.6-2.7-3.6h-7.8l3.9-20l11.7-1.7l1.3-6.8C41.2,5,54.3,0,73.6,0c6.2,0,13.7,0.7,20.3,2.9l-4.5,23.3H77.8v-0.9
		c0-3-2.9-5-6-5c-5.2,0-6.2,3.9-6.2,6.5c0,3.7,3.3,4.5,6,4.5h25.5l1.3-6.8C102.1,5,115.2,0,134.5,0c8.4,0,18.9,1,26.9,3.5L157,26.2
		h-18.3v-0.9c0-3-2.9-5-6-5c-5.2,0-6.2,3.9-6.2,6.5c0,3.7,3.3,4.5,6,4.5h16.8L145,53h-16.4l-13.1,64.9
		c-3.6,17.7-17.3,24.9-33.7,24.9c-6.9,0-13.7-1-21-2.6l4.2-23.8C68.1,117.1,70.7,117.5,72.7,117.5z"/>
</g>
</svg>
